<?xml version="1.0" encoding="UTF-8" standalone="no"?>
<svg
   xmlns:dc="http://purl.org/dc/elements/1.1/"
   xmlns:cc="http://creativecommons.org/ns#"
   xmlns:rdf="http://www.w3.org/1999/02/22-rdf-syntax-ns#"
   xmlns:svg="http://www.w3.org/2000/svg"
   xmlns="http://www.w3.org/2000/svg"
   xmlns:sodipodi="http://sodipodi.sourceforge.net/DTD/sodipodi-0.dtd"
   xmlns:inkscape="http://www.inkscape.org/namespaces/inkscape"
   id="Lager_1"
   style="enable-background:new 0 0 128 128;"
   version="1.1"
   viewBox="0 0 128 128"
   xml:space="preserve"
   sodipodi:docname="javascript.svg"
   inkscape:version="0.92.2 (5c3e80d, 2017-08-06)"><metadata
     id="metadata24"><rdf:RDF><cc:Work
         rdf:about=""><dc:format>image/svg+xml</dc:format><dc:type
           rdf:resource="http://purl.org/dc/dcmitype/StillImage" /></cc:Work></rdf:RDF></metadata><defs
     id="defs22" /><sodipodi:namedview
     pagecolor="#ffffff"
     bordercolor="#666666"
     borderopacity="1"
     objecttolerance="10"
     gridtolerance="10"
     guidetolerance="10"
     inkscape:pageopacity="0"
     inkscape:pageshadow="2"
     inkscape:window-width="1920"
     inkscape:window-height="1053"
     id="namedview20"
     showgrid="false"
     inkscape:zoom="7.375"
     inkscape:cx="70.726603"
     inkscape:cy="83.565215"
     inkscape:window-x="0"
     inkscape:window-y="376"
     inkscape:window-maximized="1"
     inkscape:current-layer="Lager_1" /><g
     id="g17"
     transform="matrix(1.2772544,0,0,1.2772544,-17.744287,-17.744287)"><g
       id="g6"><g
         id="g4"><circle
           cx="64"
           cy="64"
           r="50"
           style="fill:#f0db4f"
           id="circle2" /></g></g><g
       id="Layer_1_1_"><g
         id="g14"><g
           id="g12"><path
             d="m 48.4,44.6 h 8.7 V 69.1 C 57.1,80.1 51.8,84 43.4,84 41.3,84 38.7,83.7 37,83.1 L 38,76 c 1.2,0.4 2.8,0.7 4.5,0.7 3.7,0 6,-1.7 6,-7.6 z"
             style="fill:#323330"
             id="path8"
             inkscape:connector-curvature="0" /><path
             d="m 64.8,74.4 c 2.3,1.2 6,2.4 9.7,2.4 4,0 6.1,-1.7 6.1,-4.3 0,-2.4 -1.8,-3.8 -6.5,-5.4 C 67.7,64.8 63.4,61.2 63.4,55.5 63.4,49 69,44 78.1,44 c 4.4,0 7.6,0.9 9.9,2 l -2,7 c -1.5,-0.7 -4.3,-1.8 -8,-1.8 -3.8,0 -5.6,1.8 -5.6,3.7 0,2.5 2.1,3.6 7.2,5.5 6.8,2.5 10,6.1 10,11.6 0,6.5 -4.9,12 -15.6,12 -4.4,0 -8.8,-1.2 -11,-2.4 z"
             style="fill:#323330"
             id="path10"
             inkscape:connector-curvature="0" /></g></g></g></g></svg>