<?xml version="1.0" encoding="UTF-8" standalone="no"?>
<svg
   xmlns:dc="http://purl.org/dc/elements/1.1/"
   xmlns:cc="http://creativecommons.org/ns#"
   xmlns:rdf="http://www.w3.org/1999/02/22-rdf-syntax-ns#"
   xmlns:svg="http://www.w3.org/2000/svg"
   xmlns="http://www.w3.org/2000/svg"
   xmlns:sodipodi="http://sodipodi.sourceforge.net/DTD/sodipodi-0.dtd"
   xmlns:inkscape="http://www.inkscape.org/namespaces/inkscape"
   id="Lager_1"
   style="enable-background:new 0 0 128 128;"
   version="1.1"
   viewBox="0 0 128 128"
   xml:space="preserve"
   sodipodi:docname="nodejs.svg"
   inkscape:version="0.92.2 (5c3e80d, 2017-08-06)"><metadata
     id="metadata17"><rdf:RDF><cc:Work
         rdf:about=""><dc:format>image/svg+xml</dc:format><dc:type
           rdf:resource="http://purl.org/dc/dcmitype/StillImage" /></cc:Work></rdf:RDF></metadata><defs
     id="defs15" /><sodipodi:namedview
     pagecolor="#ffffff"
     bordercolor="#666666"
     borderopacity="1"
     objecttolerance="10"
     gridtolerance="10"
     guidetolerance="10"
     inkscape:pageopacity="0"
     inkscape:pageshadow="2"
     inkscape:window-width="1920"
     inkscape:window-height="1053"
     id="namedview13"
     showgrid="false"
     inkscape:zoom="5.2149125"
     inkscape:cx="82.412973"
     inkscape:cy="59.247859"
     inkscape:window-x="0"
     inkscape:window-y="376"
     inkscape:window-maximized="1"
     inkscape:current-layer="Lager_1" /><style
     type="text/css"
     id="style2">
	.st0{fill:#46483E;}
	.st1{fill:#81CF08;}
</style><g
     id="g10"
     transform="matrix(1.9963002,0,0,1.9963002,-63.912655,-63.713395)"><path
       class="st1"
       d="m 64,95.9 c -0.9,0 -1.7,-0.2 -2.5,-0.7 l -7.8,-4.6 c -1.2,-0.7 -0.6,-0.9 -0.2,-1 1.6,-0.6 1.9,-0.7 3.5,-1.6 0.2,-0.1 0.4,-0.1 0.6,0.1 l 6,3.6 c 0.2,0.1 0.5,0.1 0.7,0 L 87.7,78.2 c 0.2,-0.1 0.4,-0.4 0.4,-0.6 v -27 C 88.1,50.3 88,50.1 87.7,50 L 64.4,36.4 c -0.2,-0.1 -0.5,-0.1 -0.7,0 L 40.3,49.8 c -0.2,0.1 -0.4,0.4 -0.4,0.6 v 27 c 0,0.2 0.1,0.5 0.4,0.6 l 6.4,3.7 c 3.5,1.7 5.6,-0.3 5.6,-2.4 V 52.8 c 0,-0.4 0.3,-0.7 0.7,-0.7 h 3 c 0.4,0 0.7,0.3 0.7,0.7 v 26.6 c 0,4.7 -2.5,7.3 -6.9,7.3 -1.4,0 -2.4,0 -5.4,-1.5 l -6.1,-3.5 c -1.5,-0.9 -2.5,-2.5 -2.5,-4.3 v -27 c 0,-1.7 0.9,-3.4 2.5,-4.3 L 61.7,32.6 c 1.5,-0.8 3.5,-0.8 4.9,0 L 90,46.1 c 1.5,0.9 2.5,2.5 2.5,4.3 v 27 c 0,1.7 -0.9,3.4 -2.5,4.3 L 66.5,95.3 c -0.8,0.4 -1.6,0.6 -2.5,0.6 z"
       id="path6"
       inkscape:connector-curvature="0"
       style="fill:#81cf08" /><path
       class="st1"
       d="m 71.3,77.3 c -10.2,0 -12.4,-4.7 -12.4,-8.6 0,-0.4 0.3,-0.7 0.7,-0.7 h 3 c 0.3,0 0.6,0.2 0.7,0.6 0.4,3.1 1.8,4.6 8,4.6 4.9,0 7,-1.1 7,-3.7 0,-1.5 -0.6,-2.6 -8.3,-3.4 -6.4,-0.6 -10.4,-2 -10.4,-7.2 0,-4.7 4,-7.5 10.7,-7.5 7.5,0 11.2,2.6 11.7,8.2 0,0.2 -0.1,0.4 -0.2,0.5 -0.1,0.1 -0.3,0.2 -0.5,0.2 h -3 c -0.3,0 -0.6,-0.2 -0.7,-0.5 -0.7,-3.2 -2.5,-4.3 -7.3,-4.3 -5.4,0 -6,1.9 -6,3.3 0,1.7 0.7,2.2 8,3.2 7.2,0.9 10.6,2.3 10.6,7.3 0,5.1 -4.2,8 -11.6,8 z"
       id="path8"
       inkscape:connector-curvature="0"
       style="fill:#81cf08" /></g></svg>