<?xml version="1.0" encoding="UTF-8" standalone="no"?>
<svg
   xmlns:dc="http://purl.org/dc/elements/1.1/"
   xmlns:cc="http://creativecommons.org/ns#"
   xmlns:rdf="http://www.w3.org/1999/02/22-rdf-syntax-ns#"
   xmlns:svg="http://www.w3.org/2000/svg"
   xmlns="http://www.w3.org/2000/svg"
   xmlns:sodipodi="http://sodipodi.sourceforge.net/DTD/sodipodi-0.dtd"
   xmlns:inkscape="http://www.inkscape.org/namespaces/inkscape"
   id="Lager_1"
   style="enable-background:new 0 0 128 128;"
   version="1.1"
   viewBox="0 0 128 128"
   xml:space="preserve"
   sodipodi:docname="apps.svg"
   inkscape:version="0.92.2 (5c3e80d, 2017-08-06)"><metadata
     id="metadata25"><rdf:RDF><cc:Work
         rdf:about=""><dc:format>image/svg+xml</dc:format><dc:type
           rdf:resource="http://purl.org/dc/dcmitype/StillImage" /></cc:Work></rdf:RDF></metadata><defs
     id="defs23" /><sodipodi:namedview
     pagecolor="#ffffff"
     bordercolor="#666666"
     borderopacity="1"
     objecttolerance="10"
     gridtolerance="10"
     guidetolerance="10"
     inkscape:pageopacity="0"
     inkscape:pageshadow="2"
     inkscape:window-width="1920"
     inkscape:window-height="1056"
     id="namedview21"
     showgrid="false"
     inkscape:zoom="5.2149125"
     inkscape:cx="46.887431"
     inkscape:cy="69.057314"
     inkscape:window-x="0"
     inkscape:window-y="24"
     inkscape:window-maximized="1"
     inkscape:current-layer="Lager_1" /><style
     type="text/css"
     id="style2">
	.st0{fill:#292929;}
	.st1{fill:#00DBFC;}
</style><g
     id="g12"
     transform="matrix(1.2766102,0,0,1.2766102,-17.703051,-17.703051)"><g
       id="g10"><g
         id="g8"><g
           id="g6"><circle
             class="st0"
             cx="64"
             cy="64"
             r="50"
             id="circle4"
             style="fill:#292929" /></g></g></g></g><g
     id="g18"
     transform="matrix(1.2766102,0,0,1.2766102,-17.703051,-17.703051)"><circle
       class="st1"
       cx="64"
       cy="63.900002"
       r="5.5"
       id="circle14"
       style="fill:#00dbfc" /><path
       class="st1"
       d="m 91.6,58.5 c -1.9,-1.6 -4.6,-3 -7.8,-4.1 -0.6,-0.2 -1.3,-0.4 -2,-0.6 0.1,-0.5 0.2,-0.9 0.3,-1.4 1.5,-7.4 0.4,-13.2 -2.8,-15.1 -1.6,-0.9 -3.8,-0.9 -6.3,0 -2.3,0.9 -4.9,2.5 -7.4,4.7 -0.5,0.4 -1,0.9 -1.5,1.4 -0.3,-0.3 -0.7,-0.6 -1,-0.9 -5.6,-5 -11.2,-7 -14.5,-5.1 -1.6,0.9 -2.7,2.8 -3.2,5.5 -0.4,2.4 -0.3,5.5 0.4,8.8 0.1,0.7 0.3,1.3 0.5,2 -0.8,0.2 -1.6,0.5 -2.3,0.7 -6.7,2.3 -10.7,5.9 -10.7,9.5 0,1.9 1.1,3.9 3.2,5.6 2,1.7 4.8,3.2 8,4.3 0.5,0.2 1.1,0.4 1.7,0.5 -0.2,0.7 -0.3,1.5 -0.5,2.2 -1.3,6.9 -0.2,12.2 2.9,14 0.8,0.5 1.8,0.7 2.9,0.7 1.1,0 2.3,-0.2 3.6,-0.7 2.5,-0.9 5.1,-2.5 7.7,-4.8 0.4,-0.4 0.9,-0.8 1.3,-1.2 0.6,0.5 1.1,1 1.7,1.5 3.9,3.4 7.7,5.2 10.7,5.2 1.1,0 2.1,-0.2 2.9,-0.7 1.6,-1 2.8,-2.9 3.3,-5.6 0.5,-2.6 0.4,-5.7 -0.3,-9.1 -0.1,-0.5 -0.2,-1.1 -0.4,-1.6 0.4,-0.1 0.8,-0.2 1.1,-0.4 7.2,-2.4 11.6,-6.2 11.6,-10 0,-1.7 -1.1,-3.6 -3.1,-5.3 z M 73.9,39.8 c 1.8,-0.6 3.2,-0.7 4.1,-0.2 1.8,1 3,5.3 1.6,12.3 -0.1,0.4 -0.2,0.8 -0.3,1.2 -2.6,-0.6 -5.3,-1 -8.2,-1.3 -1.7,-2.4 -3.4,-4.6 -5.2,-6.5 0.5,-0.5 0.9,-0.9 1.4,-1.3 2.3,-2 4.6,-3.4 6.6,-4.2 z M 72.6,69 c -1,1.7 -1.9,3.3 -2.9,4.7 -1.8,0.1 -3.7,0.2 -5.6,0.2 -1.9,0 -3.8,-0.1 -5.6,-0.2 -1,-1.5 -2.1,-3.1 -3,-4.8 -1,-1.6 -1.8,-3.3 -2.6,-5 0.8,-1.7 1.7,-3.3 2.6,-4.9 v 0 c 1,-1.6 2,-3.2 3,-4.8 1.8,-0.1 3.7,-0.2 5.6,-0.2 1.9,0 3.8,0.1 5.6,0.2 1,1.5 2,3.1 3,4.7 1,1.7 1.9,3.3 2.7,4.9 -1,1.8 -1.8,3.5 -2.8,5.2 z m 4,-2 c 0.8,1.9 1.5,3.7 2.1,5.4 -1.8,0.4 -3.7,0.7 -5.7,1 0.6,-1 1.3,-2.1 1.9,-3.1 0.6,-1.1 1.2,-2.2 1.7,-3.3 z M 64.1,80.9 c -1.2,-1.3 -2.5,-2.8 -3.7,-4.4 1.2,0 2.4,0.1 3.6,0.1 1.3,0 2.5,0 3.7,-0.1 -1.2,1.6 -2.4,3.1 -3.6,4.4 z m -9,-7.5 c -2,-0.2 -3.9,-0.5 -5.7,-0.9 0.5,-1.8 1.2,-3.6 2,-5.4 0.6,1.1 1.1,2.1 1.7,3.2 0.7,1.1 1.3,2.1 2,3.1 z M 53.2,57.7 c -0.6,1.1 -1.2,2.1 -1.7,3.2 -0.8,-1.8 -1.4,-3.6 -2,-5.3 1.8,-0.4 3.6,-0.7 5.6,-1 -0.7,1 -1.3,2.1 -1.9,3.1 z M 64,47.2 c 1.2,1.3 2.4,2.8 3.6,4.4 -1.2,-0.1 -2.4,-0.1 -3.7,-0.1 -1.2,0 -2.4,0 -3.6,0.1 1.3,-1.6 2.5,-3.1 3.7,-4.4 z m 10.8,10.5 c -0.6,-1.1 -1.2,-2.1 -1.9,-3.1 2,0.2 3.8,0.6 5.6,1 -0.5,1.7 -1.2,3.5 -2,5.3 -0.4,-1 -1,-2.1 -1.7,-3.2 z M 48.3,51.2 c -0.6,-3 -0.7,-5.7 -0.3,-7.8 0.3,-1.8 1,-3.1 1.9,-3.7 1.8,-1 6.1,0 11.4,4.8 0.3,0.3 0.6,0.6 0.9,0.9 -1.8,1.9 -3.5,4.1 -5.2,6.5 -2.9,0.3 -5.7,0.7 -8.2,1.3 -0.2,-0.8 -0.3,-1.4 -0.5,-2 z m -2.9,20.2 c -6.5,-2.2 -9.5,-5.4 -9.5,-7.5 0,-2 2.8,-4.9 8.9,-7 0.7,-0.2 1.4,-0.5 2.1,-0.7 0.8,2.5 1.8,5.1 3,7.8 -1.2,2.7 -2.3,5.3 -3,7.9 -0.5,-0.2 -1,-0.3 -1.5,-0.5 z m 6.1,17.3 c -0.7,0 -1.2,-0.1 -1.6,-0.4 -1.7,-1 -2.9,-4.8 -1.6,-11.2 0.1,-0.7 0.3,-1.3 0.4,-2 2.5,0.6 5.3,1 8.3,1.2 1.7,2.4 3.5,4.6 5.3,6.5 -0.4,0.4 -0.8,0.7 -1.2,1.1 -3.9,3.4 -7.4,4.8 -9.6,4.8 z M 79.8,76.4 c 1.3,6.7 0,10.9 -1.7,11.9 -1.7,1 -5.6,0.1 -10.5,-4.2 -0.5,-0.4 -1,-0.9 -1.5,-1.4 1.7,-1.9 3.5,-4.1 5.2,-6.5 3,-0.3 5.8,-0.7 8.3,-1.3 0,0.5 0.1,1 0.2,1.5 z m 2.5,-5 c -0.3,0.1 -0.7,0.2 -1,0.3 -0.8,-2.4 -1.8,-5.1 -3.1,-7.8 1.2,-2.6 2.2,-5.2 3,-7.7 0.6,0.2 1.2,0.4 1.8,0.6 2.9,1 5.3,2.3 6.9,3.6 1.4,1.2 2.2,2.4 2.2,3.5 0,2.1 -3.1,5.3 -9.8,7.5 z"
       id="path16"
       inkscape:connector-curvature="0"
       style="fill:#00dbfc" /></g></svg>